<svg width="14" height="14" viewBox="0 0 14 14" fill="none" xmlns="http://www.w3.org/2000/svg">
<g clip-path="url(#clip0_1222_38182)">
<path d="M13.4096 3.59655C13.3903 3.49176 13.3492 3.3922 13.2889 3.30433C13.2286 3.21647 13.1505 3.14227 13.0596 3.08655L11.0596 5.08655C10.9663 5.18333 10.8545 5.26032 10.7308 5.3129C10.6071 5.36548 10.474 5.39258 10.3396 5.39258C10.2052 5.39258 10.0722 5.36548 9.94846 5.3129C9.82475 5.26032 9.71291 5.18333 9.61963 5.08655L8.85963 4.40655C8.6764 4.21962 8.57377 3.9683 8.57377 3.70655C8.57377 3.4448 8.6764 3.19348 8.85963 3.00655L10.8596 1.00655C10.816 0.90409 10.7504 0.812464 10.6675 0.738158C10.5845 0.663853 10.4863 0.608683 10.3796 0.576553C9.6818 0.437393 8.95892 0.496961 8.29329 0.748476C7.62766 0.999991 7.04602 1.43334 6.61459 1.9992C6.18316 2.56506 5.91928 3.24069 5.85299 3.94916C5.79089 4.61282 5.90452 5.28032 6.18133 5.88496L0.814623 11.2516C0.418454 11.6478 0.425024 12.2921 0.82919 12.6801L1.38997 13.2185C1.78111 13.594 2.40026 13.5894 2.78575 13.208L8.21408 7.83851C8.8012 8.08098 9.44074 8.17321 10.0745 8.10527C10.7752 8.03015 11.4414 7.76214 11.9989 7.33104C12.5565 6.89993 12.9835 6.32264 13.2325 5.66334C13.4816 5.00405 13.5429 4.2886 13.4096 3.59655Z" stroke="black" stroke-linecap="round" stroke-linejoin="round"/>
</g>
<defs>
<clipPath id="clip0_1222_38182">
<rect width="14" height="14" fill="white"/>
</clipPath>
</defs>
</svg>
